
<svg xmlns="http://www.w3.org/2000/svg" viewBox="0 0 512 512"><g data-name="School Bus"><path d="M469.333 362.667H170.667V128H384a42.667 42.667 0 0 1 42.667 42.667v64H448a42.667 42.667 0 0 1 42.667 42.666v64a21.333 21.333 0 0 1-21.334 21.334z" style="fill:#ffa300"/><rect x="277.333" y="213.333" width="149.333" height="42.667" rx="21.333" ry="21.333" style="fill:#f98b00"/><circle cx="234.667" cy="362.667" r="42.667" style="fill:#002755"/><circle cx="426.667" cy="362.667" r="42.667" style="fill:#002755"/><path d="M448 234.667H277.333v-64A42.666 42.666 0 0 1 320 128H85.333a42.667 42.667 0 0 0-42.666 42.667V320a42.667 42.667 0 0 0 42.666 42.667h384a21.333 21.333 0 0 0 21.334-21.334v-64A42.667 42.667 0 0 0 448 234.667z" style="fill:gold"/><path d="M64 298.667v-64a21.333 21.333 0 0 0-21.333-21.334V320A21.334 21.334 0 0 0 64 298.667z" style="fill:#ffbe00"/><rect x="256" y="170.667" width="21.333" height="64" rx="10.667" ry="10.667" style="fill:#ffbe00"/><path d="M448 234.667h-42.667a42.666 42.666 0 0 0-42.666 42.666v64a21.334 21.334 0 0 1-21.334 21.334h128a21.334 21.334 0 0 0 21.334-21.334v-64A42.666 42.666 0 0 0 448 234.667z" style="fill:#ffbe00"/><rect x="149.333" y="341.333" width="128" height="21.333" rx="10.667" ry="10.667" style="fill:#ffbe00"/><circle cx="298.667" cy="362.667" r="42.667" style="fill:#33527d"/><circle cx="298.667" cy="362.667" r="21.333" style="fill:#ccd4ff"/><circle cx="106.667" cy="362.667" r="42.667" style="fill:#33527d"/><circle cx="106.667" cy="362.667" r="21.333" style="fill:#ccd4ff"/><rect x="405.333" y="256" width="42.667" height="64" rx="21.333" ry="21.333" style="fill:#163969"/><rect x="405.333" y="256" width="21.333" height="42.667" rx="10.667" ry="10.667" style="fill:#002755"/><circle cx="437.333" cy="309.333" r="10.667" style="fill:#002755"/><circle cx="384" cy="277.333" r="21.333" style="fill:#eff2ff"/><circle cx="469.333" cy="277.333" r="21.333" style="fill:#eff2ff"/><rect x="298.667" y="170.667" width="106.667" height="42.667" rx="21.333" ry="21.333" style="fill:#163969"/><path d="M224 170.667a32 32 0 0 1 32 32V320h-64V202.667a32 32 0 0 1 32-32z" style="fill:#33527d"/><path d="M224 170.667h-.261l-.049.001h-.063l-.033.001h-.049l-.018.001h-.049l-.037.002h-.074l-.034.002h-.066l-.03.001-.02.001h-.028l-.02.001-.034.001h-.014l-.047.002h-.016l-.033.001h-.017l-.03.002h-.02l-.03.001-.019.001-.029.001h-.02l-.035.002h-.012l-.046.002h-.019l-.03.002h-.018l-.03.002h-.02l-.03.002h-.016l-.034.002-.016.001-.095.004-.014.001-.035.002h-.017l-.029.002-.022.001-.026.002h-.021l-.03.002-.017.001-.048.003h-.003l-.044.002-.017.001-.031.002-.017.001-.031.002-.02.001-.026.002-.022.001-.025.002-.023.001-.045.003-.016.001-.03.002-.023.002-.025.001-.024.002-.023.002-.024.001-.024.002-.024.002-.026.002-.02.001-.045.003-.018.002-.03.002-.02.001-.027.002-.02.002-.029.002-.02.002-.029.002-.018.002-.034.003h-.014l-.047.005h-.013l-.033.004h-.018l-.031.004-.018.001-.027.003-.022.002-.027.002-.02.002-.036.003-.014.002-.042.003-.022.002-.025.003-.022.002-.026.002-.02.002-.027.003-.022.002-.025.003-.022.002-.02.002-.05.005-.02.002-.026.003-.02.002-.026.003-.022.002-.024.003-.024.002-.022.002-.03.004-.017.001-.045.005-.016.002-.03.003-.023.003-.024.003-.024.003-.022.002-.024.003-.023.003-.024.003-.03.003-.015.002-.045.005-.021.003-.026.003-.023.003-.022.002-.025.003-.023.003-.024.003-.02.003-.026.003-.027.004-.019.002-.045.006-.02.002-.025.004-.023.003-.023.003-.026.003-.02.003-.024.003-.024.003-.023.004-.024.003-.092.013-.02.003-.025.003-.02.003-.026.004-.02.003-.027.003-.016.002-.029.005-.019.002-.052.008-.017.003-.027.003-.019.003-.026.004-.02.003-.027.004-.017.003-.028.005-.016.002-.148.023-.013.002-.03.005-.016.003-.028.004-.018.003-.029.005-.01.002-.106.017-.015.003-.028.005-.017.002-.026.005-.02.003-.025.005-.025.004-.02.003-.026.005-.044.008-.02.003-.026.005-.018.003-.029.005-.016.003-.029.005-.015.003-.029.005-.017.003-.028.005-.015.003-.06.011-.011.002-.031.006-.013.003-.032.006-.012.002-.032.006-.012.002-.033.007-.009.001-.112.022-.007.002-.032.006-.012.002-.033.007-.01.002-.033.006-.011.003-.034.006-.006.002-.157.032-.007.001-.035.008-.008.001-.035.008-.008.001-.2.043h-.004l-.035.008-.01.003-.035.007-.005.001-.2.045-.005.001-.038.009h-.004l-.039.01h-.002l-.204.047h-.001l-.04.01-.003.001-.039.01-.202.049h-.006l-.038.01c-.178.045-.355.09-.53.137h-.003l-.242.066h-.002a32.054 32.054 0 0 0-22.602 23.323q-.069.287-.122.573c-.045.172-.085.347-.122.524a32.064 32.064 0 0 0-.625 5.2v.001l-.001.05v.001l-.002.046v.007l-.002.046v.005l-.002.045v.007l-.001.045v.006l-.002.042v.01l-.001.04v.011l-.001.041v.01l-.002.041V201.934l-.001.011-.001.045v.006l-.001.04V202.09l-.001.01v.045l-.001.005v.053l-.001.04V202.295l-.001.012V202.389l-.001.02v.178l-.001.08v106.666a10.667 10.667 0 1 0 21.333 0V202.667a10.828 10.828 0 0 1 .213-2.153c.013-.063.026-.127.037-.19l.047-.187A10.623 10.623 0 0 1 224 192a10.667 10.667 0 1 0 0-21.333z" style="fill:#002755"/><rect x="64" y="170.667" width="42.667" height="42.667" rx="21.333" ry="21.333" style="fill:#33527d"/><rect x="128" y="170.667" width="42.667" height="42.667" rx="21.333" ry="21.333" style="fill:#33527d"/><path d="M42.667 320H64v42.667H42.667a21.333 21.333 0 0 1-21.334-21.334A21.333 21.333 0 0 1 42.667 320z" style="fill:#5e7599"/><circle cx="320" cy="128" r="21.333" style="fill:#005eee"/><circle cx="330.667" cy="117.333" r="10.667" style="fill:#5cbeff"/><circle cx="384" cy="128" r="21.333" style="fill:#005eee"/><circle cx="394.667" cy="117.333" r="10.667" style="fill:#5cbeff"/><circle cx="74.667" cy="245.333" r="10.667" style="fill:#14a142"/><circle cx="96" cy="266.667" r="10.667" style="fill:#14a142"/><circle cx="53.333" cy="266.667" r="10.667" style="fill:#14a142"/><circle cx="117.333" cy="245.333" r="10.667" style="fill:#14a142"/><circle cx="138.667" cy="266.667" r="10.667" style="fill:#14a142"/><circle cx="160" cy="245.333" r="10.667" style="fill:#14a142"/><circle cx="74.667" cy="181.333" r="10.667" style="fill:#002755"/><circle cx="138.667" cy="181.333" r="10.667" style="fill:#002755"/><circle cx="53.333" cy="352" r="10.667" style="fill:#33527d"/><rect x="320" y="170.667" width="64" height="21.333" rx="10.667" ry="10.667" style="fill:#002755"/><rect x="170.667" y="170.667" width="21.333" height="149.333" rx="10.667" ry="10.667" style="fill:#ffff9d"/><rect x="106.667" y="170.667" width="21.333" height="42.667" rx="10.667" ry="10.667" style="fill:#ffff9d"/><rect x="426.667" y="149.333" width="42.667" height="64" rx="21.333" ry="21.333" style="fill:#ffbe00"/><rect x="234.667" y="149.333" width="42.667" height="64" rx="21.333" ry="21.333" style="fill:#ffea21"/><rect x="384" y="341.333" width="85.333" height="21.333" rx="10.667" ry="10.667" style="fill:#ffa300"/><rect x="277.333" y="234.667" width="85.333" height="21.333" rx="10.667" ry="10.667" style="fill:#ffff9d"/><rect x="85.333" y="128" width="192" height="21.333" rx="10.667" ry="10.667" style="fill:#ffff9d"/><rect x="149.333" y="320" width="106.667" height="21.333" rx="10.667" ry="10.667" style="fill:#ffea21"/></g></svg>